<svg xmlns="http://www.w3.org/2000/svg" version="1.1" xmlns:xlink="http://www.w3.org/1999/xlink" xmlns:svgjs="http://svgjs.com/svgjs" width="512" height="512" x="0" y="0" viewBox="0 0 64 64" style="enable-background:new 0 0 512 512" xml:space="preserve" class=""><g><path xmlns="http://www.w3.org/2000/svg" d="M57.441,28.4a14.407,14.407,0,0,0,.448-3.575C57.889,17.2,51.938,11,44.622,11a13.21,13.21,0,0,0-11.68,7.288C32.976,17.86,33,17.43,33,17A16,16,0,1,0,15.631,32.931,8.214,8.214,0,0,0,15,36.052,7.809,7.809,0,0,0,22.645,44h32.71A7.809,7.809,0,0,0,63,36.052,7.921,7.921,0,0,0,57.441,28.4ZM3,17a14,14,0,1,1,27.9,1.567,9.2,9.2,0,0,0-1.1-.085c-.306,0-.608.019-.908.048a12.04,12.04,0,1,0-8.936,10.09,7.587,7.587,0,0,0-3.187,2.368A14.01,14.01,0,0,1,3,17Zm17.338,9.418A9.922,9.922,0,0,1,18,26.949V25H16v1.949a9.945,9.945,0,0,1-5.324-2.211l1.374-1.374L10.636,21.95,9.262,23.324A9.942,9.942,0,0,1,7.051,18H9V16H7.051a9.942,9.942,0,0,1,2.211-5.324l1.374,1.374,1.414-1.414L10.676,9.262A9.945,9.945,0,0,1,16,7.051V9h2V7.051a9.945,9.945,0,0,1,5.324,2.211L21.95,10.636l1.414,1.414,1.374-1.374A9.942,9.942,0,0,1,26.949,16H25v2h1.947c-.033.332-.086.66-.151.985A9.98,9.98,0,0,0,20.338,26.418ZM55.355,42H22.645A5.809,5.809,0,0,1,17,36.052a5.875,5.875,0,0,1,4.288-5.777,1,1,0,0,0,.847-1.062c-.016-.213-.024-.427-.024-.644A7.905,7.905,0,0,1,29.8,20.482a7.314,7.314,0,0,1,2.13.315,14.341,14.341,0,0,0-.575,4.03h2C33.355,18.306,38.41,13,44.622,13s11.267,5.306,11.267,11.827a12.317,12.317,0,0,1-.662,4,1,1,0,0,0,.818,1.316A5.975,5.975,0,0,1,55.355,42Z" fill="#000000" data-original="#000000" class=""></path><path xmlns="http://www.w3.org/2000/svg" d="M36.026,21.818l1.884.67a8.211,8.211,0,0,1,7.735-5.426v-2A10.214,10.214,0,0,0,36.026,21.818Z" fill="#000000" data-original="#000000" class=""></path><path xmlns="http://www.w3.org/2000/svg" d="M20,17a3,3,0,0,0-3-3,2.961,2.961,0,0,0-1.319.319l.026-.026-3-3-1.414,1.414,3,3,.026-.026A2.961,2.961,0,0,0,14,17a3,3,0,0,0,3,3,2.951,2.951,0,0,0,1.285-.3l1.008,1.008,1.414-1.414L19.7,18.285A2.951,2.951,0,0,0,20,17Zm-4,0a1,1,0,1,1,1,1A1,1,0,0,1,16,17Z" fill="#000000" data-original="#000000" class=""></path><path xmlns="http://www.w3.org/2000/svg" d="M39.629,47.071,35.7,48.642A2.7,2.7,0,0,0,34,51.156v.137A2.707,2.707,0,0,0,36.707,54h.137a2.7,2.7,0,0,0,2.514-1.7l1.571-3.927a1,1,0,0,0-1.3-1.3ZM37.5,51.556a.7.7,0,0,1-.656.444h-.137A.707.707,0,0,1,36,51.293v-.137a.7.7,0,0,1,.444-.657l1.761-.7Z" fill="#000000" data-original="#000000" class=""></path><path xmlns="http://www.w3.org/2000/svg" d="M26,60.156v.137A2.707,2.707,0,0,0,28.707,63h.137a2.7,2.7,0,0,0,2.514-1.7l1.571-3.927a1,1,0,0,0-1.3-1.3L27.7,57.642A2.7,2.7,0,0,0,26,60.156Zm2,0a.7.7,0,0,1,.444-.657l1.761-.7-.7,1.761a.7.7,0,0,1-.656.444h-.137A.707.707,0,0,1,28,60.293Z" fill="#000000" data-original="#000000" class=""></path><path xmlns="http://www.w3.org/2000/svg" d="M27.629,47.071,23.7,48.642A2.7,2.7,0,0,0,22,51.156v.137A2.707,2.707,0,0,0,24.707,54h.137a2.7,2.7,0,0,0,2.514-1.7l1.571-3.927a1,1,0,0,0-1.3-1.3ZM25.5,51.556a.7.7,0,0,1-.656.444h-.137A.707.707,0,0,1,24,51.293v-.137a.7.7,0,0,1,.444-.657l1.761-.7Z" fill="#000000" data-original="#000000" class=""></path><path xmlns="http://www.w3.org/2000/svg" d="M52.629,47.071,48.7,48.642A2.7,2.7,0,0,0,47,51.156v.137A2.707,2.707,0,0,0,49.707,54h.137a2.7,2.7,0,0,0,2.514-1.7l1.571-3.927a1,1,0,0,0-1.3-1.3ZM50.5,51.556a.7.7,0,0,1-.656.444h-.137A.707.707,0,0,1,49,51.293v-.137a.7.7,0,0,1,.444-.657l1.761-.7Z" fill="#000000" data-original="#000000" class=""></path><path xmlns="http://www.w3.org/2000/svg" d="M43.629,56.071,39.7,57.642A2.7,2.7,0,0,0,38,60.156v.137A2.707,2.707,0,0,0,40.707,63h.137a2.7,2.7,0,0,0,2.514-1.7l1.571-3.927a1,1,0,0,0-1.3-1.3ZM41.5,60.556a.7.7,0,0,1-.656.444h-.137A.707.707,0,0,1,40,60.293v-.137a.7.7,0,0,1,.444-.657l1.761-.7Z" fill="#000000" data-original="#000000" class=""></path></g></svg>